<?xml version="1.0" standalone="no"?>
<!DOCTYPE svg PUBLIC "-//W3C//DTD SVG 20010904//EN"
 "http://www.w3.org/TR/2001/REC-SVG-20010904/DTD/svg10.dtd">
<svg version="1.0" xmlns="http://www.w3.org/2000/svg"
 width="600.000000pt" height="600.000000pt" viewBox="0 0 600.000000 600.000000"
 preserveAspectRatio="xMidYMid meet">

<g transform="translate(0.000000,600.000000) scale(0.100000,-0.100000)"
fill="#000000" stroke="none">
<path d="M2797 5030 c-15 -17 -27 -37 -27 -43 0 -7 -20 -20 -43 -30 -77 -34
-82 -38 -95 -66 -7 -17 -28 -35 -52 -46 -21 -10 -47 -27 -58 -39 -29 -32 -52
-101 -52 -155 0 -36 -10 -68 -36 -121 -24 -49 -34 -80 -30 -96 4 -15 0 -34
-10 -49 -10 -16 -14 -36 -11 -53 3 -16 -1 -48 -9 -72 -9 -25 -14 -72 -13 -109
1 -51 -4 -82 -26 -136 -34 -88 -55 -155 -69 -224 -9 -41 -16 -55 -31 -57 -10
-2 -37 -10 -60 -20 -73 -30 -80 -32 -114 -38 -58 -10 -74 -48 -45 -106 15 -30
15 -37 0 -91 -17 -63 -22 -236 -8 -267 49 -100 73 -138 118 -182 61 -60 103
-71 245 -65 84 4 189 36 189 57 0 4 6 8 14 8 18 0 126 108 126 126 0 7 9 15
20 19 10 3 25 22 32 40 11 33 13 34 34 20 20 -13 21 -13 17 5 -3 11 -12 20
-20 20 -12 0 -13 3 -4 13 6 8 12 22 14 33 2 10 7 26 10 34 26 61 36 104 27
110 -6 4 -10 27 -8 51 4 59 33 73 148 73 67 0 93 -4 124 -20 l39 -21 1 -180
c1 -118 5 -185 12 -194 7 -8 15 -29 19 -46 6 -32 102 -143 123 -143 5 0 12 -6
15 -14 3 -8 19 -17 36 -21 17 -4 31 -11 31 -15 0 -5 17 -12 38 -15 20 -3 45
-11 56 -16 10 -6 65 -11 121 -10 135 0 181 18 312 118 34 27 62 54 62 61 1 6
5 12 9 12 5 0 17 27 27 60 10 34 22 63 27 66 4 3 8 16 8 29 0 13 4 27 10 30 6
3 7 43 3 100 l-6 94 34 20 c41 24 50 68 22 97 -17 17 -18 16 -21 -19 -2 -23
-10 -41 -21 -47 -21 -11 -39 -51 -44 -100 -3 -26 -4 -21 -5 17 -2 63 -26 128
-60 165 -24 26 -24 27 -3 21 12 -3 24 -9 27 -14 6 -11 64 -12 64 -1 0 7 -83
39 -130 49 -14 3 -27 9 -30 13 -10 16 -169 49 -260 55 -99 7 -237 -8 -256 -28
-4 -4 -17 -7 -29 -7 -12 0 -34 -9 -48 -20 -14 -11 -28 -20 -30 -20 -3 0 -21
-13 -39 -30 -35 -33 -48 -36 -65 -19 -7 7 -36 20 -65 30 -57 21 -197 26 -214
9 -6 -6 -25 -14 -42 -19 -27 -8 -34 -7 -42 9 -5 10 -17 26 -26 34 -14 15 -13
19 15 45 51 48 43 52 -91 50 -71 -1 -135 3 -151 10 -16 6 -70 11 -122 11 -95
0 -97 1 -82 40 3 8 6 22 6 30 3 61 34 183 51 200 3 3 5 10 6 15 1 23 17 65 24
65 4 0 11 12 14 27 13 48 136 203 163 203 6 0 13 5 15 11 2 5 30 19 62 30 55
18 91 19 535 19 426 0 487 -2 582 -20 131 -23 172 -39 277 -107 129 -84 183
-145 219 -248 19 -53 26 -103 49 -324 5 -50 42 -181 63 -226 5 -11 20 -51 32
-90 12 -38 26 -74 31 -79 4 -6 8 -18 8 -27 0 -33 40 -147 62 -174 l22 -28 18
23 c10 12 18 19 18 15 0 -4 8 3 18 15 17 20 20 21 34 7 9 -9 19 -13 23 -9 4 4
6 3 5 -3 -6 -28 1 -35 28 -29 15 4 29 8 31 10 5 5 24 152 47 364 18 174 9 440
-17 456 -5 3 -9 13 -9 22 -1 25 -44 109 -72 141 -16 17 -27 45 -31 76 -4 27
-13 56 -21 64 -7 9 -16 34 -20 56 -4 22 -12 54 -18 70 -12 32 -86 115 -103
115 -5 0 -18 12 -28 28 -34 49 -157 126 -257 158 -30 10 -80 37 -110 61 -71
55 -255 148 -319 162 -28 6 -63 8 -78 5 -22 -4 -43 4 -96 39 -88 58 -139 72
-205 58 -41 -8 -59 -7 -99 6 -26 9 -53 19 -58 24 -16 12 -98 39 -119 39 -11 0
-34 -12 -53 -26 -38 -29 -47 -28 -133 6 -88 35 -94 35 -123 0z m-439 -1363
c-64 -49 -64 -94 0 -47 36 26 101 39 195 40 66 0 83 -4 117 -25 55 -35 74 -66
66 -110 -4 -20 -3 -35 2 -35 13 0 7 -107 -7 -142 -12 -33 -25 -35 -67 -9 -76
47 -229 51 -326 9 -53 -23 -72 -45 -58 -69 8 -11 13 -12 27 -1 55 38 80 52 98
52 18 0 20 -6 17 -52 -1 -29 1 -59 6 -66 11 -16 113 -41 172 -42 l44 0 -49
-50 c-28 -28 -60 -53 -72 -57 -13 -3 -23 -9 -23 -13 0 -13 -138 -33 -194 -27
-48 4 -77 13 -118 37 -10 5 -26 14 -35 18 -10 5 -32 30 -50 57 -103 156 -38
483 106 533 44 15 43 16 36 -9 -4 -12 -4 -69 1 -128 7 -104 8 -105 15 -51 5
30 9 70 11 88 1 17 5 32 8 32 3 0 5 17 4 37 -1 34 2 39 30 49 17 7 44 12 59
13 28 1 28 0 -15 -32z m1294 -17 c24 -5 74 -16 113 -25 38 -8 85 -23 105 -33
51 -27 90 -90 97 -159 l6 -58 -24 18 c-36 26 -80 49 -85 45 -2 -3 12 -27 32
-55 38 -54 67 -142 54 -163 -6 -10 -26 -5 -82 22 -132 64 -210 82 -328 77
-124 -6 -230 -62 -230 -123 0 -33 5 -33 38 3 15 15 42 33 60 39 l32 11 0 -47
c0 -26 4 -53 9 -61 15 -23 99 -29 225 -17 129 13 146 22 146 78 0 33 12 35 64
8 22 -10 43 -17 47 -14 15 9 0 -68 -16 -86 -8 -9 -15 -20 -15 -24 0 -18 -91
-90 -150 -119 -59 -29 -74 -32 -160 -32 -69 0 -112 6 -155 20 -69 23 -69 23
-139 90 -71 68 -99 143 -98 263 0 170 11 217 56 255 39 33 111 65 171 76 32 6
61 13 63 16 9 9 120 5 164 -5z m-1625 -332 c-2 -13 -4 -3 -4 22 0 25 2 35 4
23 2 -13 2 -33 0 -45z m1980 5 c-3 -10 -5 -4 -5 12 0 17 2 24 5 18 2 -7 2 -21
0 -30z m-1447 8 c0 -16 -19 -23 -40 -16 -30 10 -24 25 10 25 17 0 30 -4 30 -9z
m607 -83 c-3 -7 -5 -2 -5 12 0 14 2 19 5 13 2 -7 2 -19 0 -25z m418 13 c-18
-7 -55 -4 -55 5 0 2 17 4 38 3 28 0 32 -2 17 -8z"/>
<path d="M2556 3581 c-3 -5 16 -12 44 -16 27 -4 52 -11 55 -15 10 -16 65 -39
71 -29 10 16 -25 41 -79 55 -61 16 -84 17 -91 5z"/>
<path d="M2231 3360 l1 -45 8 35 c5 20 5 39 -1 45 -5 5 -9 -8 -8 -35z"/>
<path d="M2192 3130 c0 -14 2 -19 5 -12 2 6 2 18 0 25 -3 6 -5 1 -5 -13z"/>
<path d="M3270 3500 c-9 -6 -10 -10 -3 -10 6 0 15 5 18 10 8 12 4 12 -15 0z"/>
<path d="M3480 3810 c-101 -12 -152 -28 -148 -47 5 -26 47 -31 159 -21 74 7
138 7 224 -2 106 -10 128 -16 185 -47 36 -19 67 -39 70 -43 10 -14 49 -30 54
-21 7 11 -81 94 -124 116 -63 33 -141 54 -218 60 -42 3 -90 7 -107 9 -16 2
-59 0 -95 -4z"/>
<path d="M1637 3583 c-7 -16 -26 -49 -41 -75 -26 -48 -50 -138 -36 -138 4 0
11 20 14 45 4 25 11 45 16 45 11 0 46 68 58 114 12 43 9 46 -11 9z"/>
<path d="M2755 3142 c-48 -64 -73 -107 -68 -112 3 -3 8 0 10 6 2 6 22 35 43
65 34 45 48 70 38 69 -2 0 -12 -13 -23 -28z"/>
<path d="M535 3095 c-19 -10 -45 -41 -70 -83 -36 -61 -40 -73 -40 -137 0 -62
4 -75 31 -115 17 -26 38 -44 47 -44 9 1 15 -2 12 -6 -3 -4 2 -13 10 -20 8 -7
12 -16 9 -21 -3 -5 -1 -9 3 -9 5 0 22 -12 39 -27 42 -39 107 -73 137 -73 27 0
52 -23 43 -39 -4 -5 -19 -12 -35 -16 -22 -5 -27 -10 -24 -28 6 -32 -47 -130
-78 -144 -14 -7 -40 -14 -57 -15 -50 -4 -37 -16 24 -24 71 -8 162 1 200 21 16
8 36 15 44 15 8 0 32 9 53 20 20 11 43 20 51 20 26 0 25 -28 -2 -52 -15 -14
-45 -46 -67 -72 -56 -67 -138 -148 -190 -188 -92 -70 -48 -95 85 -48 45 16 87
33 93 38 7 5 24 12 40 16 20 5 27 3 27 -8 0 -26 -22 -66 -33 -59 -6 4 -8 0 -4
-11 4 -9 3 -15 -2 -12 -5 3 -15 -2 -22 -11 -8 -9 -27 -22 -44 -30 -16 -8 -46
-23 -65 -33 -19 -11 -45 -19 -56 -20 -12 0 -41 -7 -64 -15 -23 -8 -58 -15 -76
-15 -19 0 -34 -4 -34 -9 0 -4 -26 -11 -57 -14 -35 -4 -60 -12 -65 -21 -5 -8
-15 -21 -23 -29 -20 -20 -65 -88 -65 -98 0 -27 211 26 260 66 8 6 47 22 85 35
39 12 72 26 75 29 3 4 20 11 38 17 74 21 219 180 238 261 4 15 11 33 15 39 5
6 12 53 16 105 3 52 10 97 15 100 11 7 98 -9 113 -21 6 -5 31 -11 58 -15 26
-4 47 -11 47 -16 0 -5 10 -9 23 -9 13 0 61 -11 107 -25 46 -14 94 -25 107 -25
13 0 23 -4 23 -9 0 -5 17 -12 38 -16 20 -4 42 -10 47 -15 6 -4 43 -13 82 -20
40 -6 75 -16 79 -21 11 -18 80 -10 106 13 27 25 43 58 28 58 -6 0 -10 -4 -10
-10 0 -5 -16 -20 -35 -33 l-35 -24 -74 17 c-73 18 -117 31 -186 55 -19 7 -69
23 -110 35 -41 13 -89 29 -107 37 -17 7 -36 13 -43 13 -6 0 -79 23 -163 50
-242 81 -341 141 -435 265 -57 76 -69 85 -109 85 -47 0 -76 47 -67 110 4 25
11 50 16 57 5 7 8 22 6 35 -2 12 5 32 15 43 10 11 43 53 73 93 l54 72 -68 0
c-39 0 -80 -7 -97 -15z m-10 -194 c-3 -6 -15 -11 -26 -11 -10 0 -19 -4 -19
-10 0 -5 -4 -10 -10 -10 -21 0 -9 17 23 32 34 17 43 16 32 -1z"/>
<path d="M1703 3023 c-28 -9 -43 -21 -43 -31 0 -33 38 -79 99 -120 l60 -42 41
40 c35 34 40 45 40 85 0 25 -5 52 -12 59 -13 14 -51 10 -42 -5 2 -5 -15 0 -38
11 -50 23 -50 23 -105 3z"/>
<path d="M393 2950 c-3 -11 -9 -20 -14 -20 -5 0 -9 -6 -9 -12 0 -7 -9 -26 -21
-43 l-20 -30 6 35 c4 19 12 41 17 48 7 8 7 12 0 12 -5 0 -24 -30 -42 -66 -33
-66 -33 -74 3 -86 4 -2 1 -20 -8 -40 -16 -41 -20 -78 -7 -78 5 0 14 19 21 43
12 39 52 147 71 192 15 34 22 65 15 65 -4 0 -9 -9 -12 -20z"/>
<path d="M2595 2960 c-3 -6 1 -7 9 -4 18 7 21 14 7 14 -6 0 -13 -4 -16 -10z"/>
<path d="M4693 2949 c-33 -21 -69 -67 -59 -76 7 -7 129 70 134 85 6 19 -40 14
-75 -9z"/>
<path d="M2555 2930 c-3 -6 1 -7 9 -4 18 7 21 14 7 14 -6 0 -13 -4 -16 -10z"/>
<path d="M3290 2913 c0 -15 18 -35 23 -27 3 5 -1 15 -9 22 -8 7 -14 9 -14 5z"/>
<path d="M2445 2889 c-11 -17 1 -21 15 -4 8 9 8 15 2 15 -6 0 -14 -5 -17 -11z"/>
<path d="M2143 2876 c-7 -9 -13 -28 -13 -43 0 -20 3 -24 9 -14 5 8 7 20 4 28
-4 10 16 13 93 14 94 2 96 2 39 9 -33 5 -73 11 -90 14 -20 4 -34 1 -42 -8z"/>
<path d="M2721 2838 c-1 -66 31 -103 105 -119 75 -17 159 -1 192 36 24 28 30
60 10 52 -7 -2 -38 -10 -69 -17 -93 -21 -206 15 -229 74 -7 16 -9 11 -9 -26z"/>
<path d="M1820 2795 c0 -18 -60 -21 -77 -4 -14 14 -73 7 -133 -16 -25 -9 -47
-18 -49 -20 -2 -2 6 -16 17 -32 45 -65 41 -112 -13 -132 -38 -14 -125 -87
-125 -106 0 -16 136 -59 183 -58 29 0 47 9 74 34 33 32 35 37 30 87 -4 41 -3
52 9 52 37 0 93 41 113 83 24 50 25 57 10 91 -13 29 -39 42 -39 21z m-136
-160 c27 -25 33 -49 16 -60 -16 -10 -42 10 -55 43 -21 48 -3 56 39 17z"/>
<path d="M2134 2670 c2 -135 17 -221 52 -287 7 -16 14 -31 14 -34 0 -4 16 -33
36 -65 20 -33 45 -74 56 -91 11 -18 24 -33 29 -33 5 0 9 -7 9 -15 0 -7 6 -18
13 -22 7 -4 20 -19 28 -33 20 -31 134 -145 185 -184 42 -33 114 -71 151 -81
19 -5 23 -10 17 -28 -4 -12 -11 -23 -15 -25 -5 -2 -9 -10 -9 -18 0 -20 -99
-19 -126 1 -10 8 -28 15 -40 15 -11 0 -29 7 -40 15 -10 8 -29 15 -41 15 -13 0
-23 5 -23 10 0 17 -112 119 -142 129 -15 6 -28 7 -28 4 0 -23 89 -141 165
-217 120 -121 166 -159 179 -146 6 6 72 10 161 10 120 0 155 -3 173 -16 22
-15 30 -44 12 -44 -15 0 -12 -33 6 -59 16 -22 20 -23 108 -16 126 9 264 34
281 52 8 8 15 24 15 35 0 11 8 22 20 25 11 3 20 9 20 14 0 5 6 9 13 9 6 0 26
7 42 16 74 39 368 101 425 90 14 -3 19 -3 13 0 -7 3 -13 10 -13 15 0 16 -52
124 -62 127 -4 2 -8 8 -8 14 0 6 -12 24 -26 41 l-26 31 23 7 c32 9 319 156
354 182 5 4 23 18 38 32 15 14 35 25 43 25 7 0 14 4 14 8 0 5 28 29 63 54 34
26 74 58 89 72 15 14 32 26 38 26 5 0 10 4 10 10 0 17 61 42 89 36 l26 -6 -30
25 c-16 14 -33 25 -37 25 -4 0 -8 12 -10 28 -3 25 -7 27 -48 29 -25 1 -61 -5
-80 -13 -122 -54 -234 -118 -260 -149 -41 -49 -298 -237 -410 -299 -19 -11
-37 -23 -40 -27 -14 -20 -153 -89 -250 -124 -96 -35 -189 -47 -310 -39 -173
11 -410 74 -475 126 -34 28 -68 63 -130 132 -38 44 -83 93 -98 110 -37 42
-137 191 -126 191 2 0 -8 20 -22 45 -32 54 -70 198 -80 300 -5 61 -6 49 -5
-60z"/>
<path d="M2503 2574 c45 -84 157 -154 281 -174 57 -9 344 -5 354 5 10 10 -52
25 -101 25 -29 1 -83 5 -122 10 -38 6 -99 13 -135 17 -64 6 -65 7 -35 20 42
18 422 16 534 -4 79 -13 85 -13 124 6 23 11 47 29 54 39 11 18 4 19 -210 15
-206 -5 -336 2 -497 26 -36 6 -99 14 -140 20 -41 5 -86 13 -98 17 -24 7 -24 6
-9 -22z"/>
<path d="M2605 2370 c3 -5 8 -10 11 -10 2 0 4 5 4 10 0 6 -5 10 -11 10 -5 0
-7 -4 -4 -10z"/>
<path d="M4578 2363 c7 -3 16 -2 19 1 4 3 -2 6 -13 5 -11 0 -14 -3 -6 -6z"/>
<path d="M2637 2349 c7 -7 15 -10 18 -7 3 3 -2 9 -12 12 -14 6 -15 5 -6 -5z"/>
<path d="M326 1785 c-9 -26 -7 -32 5 -12 6 10 9 21 6 23 -2 3 -7 -2 -11 -11z"/>
<path d="M873 1383 c9 -2 17 -8 17 -13 0 -5 16 -12 35 -16 19 -3 35 -10 35
-14 0 -5 14 -11 30 -15 17 -4 30 -10 30 -15 0 -4 12 -13 28 -19 47 -20 82 -42
82 -52 0 -5 6 -9 13 -9 8 0 22 -9 32 -20 10 -11 22 -20 27 -20 9 0 32 -19 89
-72 11 -10 21 -18 23 -18 3 0 35 -19 73 -42 73 -47 143 -108 143 -126 0 -7 5
-12 10 -12 6 0 15 -10 20 -22 8 -22 9 -22 9 5 1 15 -4 27 -10 27 -6 0 -8 7 -5
17 4 10 4 14 0 10 -4 -4 -16 10 -25 30 -10 21 -18 34 -19 29 0 -4 -16 6 -35
23 -20 17 -42 31 -50 31 -8 0 -21 10 -29 22 -9 12 -16 18 -16 13 0 -6 -5 -3
-10 6 -5 9 -22 20 -37 24 -16 4 -36 14 -45 23 -31 31 -48 43 -48 35 0 -4 -6
-1 -13 7 -12 14 -87 73 -97 76 -35 10 -49 18 -44 25 3 5 -2 9 -10 9 -9 0 -16
5 -16 10 0 6 -6 10 -12 9 -20 -3 -68 12 -68 22 0 5 -3 8 -7 7 -5 -1 -18 3 -30
10 -13 7 -23 9 -23 5 0 -4 -5 -2 -12 5 -7 7 -21 11 -32 11 -17 -1 -18 -2 -3
-6z"/>
<path d="M3004 1272 c4 -7 -7 -12 -31 -14 -37 -3 -38 -4 -41 -44 -5 -74 70
-135 124 -99 13 8 24 23 24 32 0 18 -56 119 -72 129 -6 4 -8 2 -4 -4z"/>
<path d="M3327 1251 c-4 -17 -3 -21 5 -13 5 5 8 16 6 23 -3 8 -7 3 -11 -10z"/>
<path d="M3296 1203 c-6 -14 -5 -15 5 -6 7 7 10 15 7 18 -3 3 -9 -2 -12 -12z"/>
<path d="M3265 1159 c-4 -6 -5 -12 -2 -15 2 -3 7 2 10 11 7 17 1 20 -8 4z"/>
<path d="M3050 634 c-21 -20 -25 -34 -25 -79 0 -35 5 -60 15 -69 34 -33 117
-27 146 12 8 9 14 38 14 64 0 40 -4 50 -31 72 -39 33 -85 33 -119 0z"/>
</g>
</svg>
